<svg role="img" viewBox="0 0 24 24" xmlns="http://www.w3.org/2000/svg"><title>Hugging Face</title><path d="M12 0C5.373 0 0 5.373 0 12s5.373 12 12 12 12-5.373 12-12S18.627 0 12 0zm-.078 4.717c1.725 0 2.91.575 3.703 1.472.678.766.995 1.715 1.09 2.508.033.276-.17.524-.45.55a.507.507 0 0 1-.553-.447c-.07-.586-.31-1.315-.82-1.89-.575-.65-1.47-1.09-2.97-1.09-1.503 0-2.398.44-2.973 1.09-.51.575-.75 1.304-.82 1.89a.507.507 0 0 1-.552.448.497.497 0 0 1-.45-.55c.094-.794.41-1.743 1.09-2.509.792-.897 1.977-1.472 3.705-1.472zm-4.453 5.608c.622 0 1.127.672 1.127 1.5 0 .829-.505 1.5-1.127 1.5-.623 0-1.128-.671-1.128-1.5 0-.828.505-1.5 1.128-1.5zm8.984 0c.622 0 1.127.672 1.127 1.5 0 .829-.505 1.5-1.127 1.5-.623 0-1.128-.671-1.128-1.5 0-.828.505-1.5 1.128-1.5zm-8.328 5.317a.5.5 0 0 1 .395.81c.005-.004.647.773 1.923 1.333C11.577 18.254 13.295 18 15 18c.81 0 1.577-.094 2.293-.287.716-.193 1.378-.47 1.967-.817a.5.5 0 1 1 .516.856c-.68.4-1.43.718-2.24.936-.81.22-1.67.335-2.536.335-1.878 0-3.778.287-5.197-.47-1.41-.75-2.303-1.796-2.303-1.796a.5.5 0 0 1 .375-.825z"/></svg>
